<?xml version="1.0" encoding="UTF-8" standalone="no"?>
<!DOCTYPE svg PUBLIC "-//W3C//DTD SVG 1.1//EN"
 "http://www.w3.org/Graphics/SVG/1.1/DTD/svg11.dtd">
<!-- Generated by graphviz version 2.47.3 (20210619.1520)
 -->
<!-- Title: dependencies Pages: 1 -->
<svg width="1679pt" height="239pt"
 viewBox="0.00 0.00 1679.00 238.80" xmlns="http://www.w3.org/2000/svg" xmlns:xlink="http://www.w3.org/1999/xlink">
<g id="graph0" class="graph" transform="scale(1 1) rotate(0) translate(4 234.8)">
<title>dependencies</title>
<polygon fill="white" stroke="transparent" points="-4,4 -4,-234.8 1675,-234.8 1675,4 -4,4"/>
<text text-anchor="middle" x="835.5" y="-8.2" font-family="sans-serif" font-size="14.00">dependencies</text>
<g id="clust1" class="cluster">
<title>cluster_ProcessesModule</title>
<polygon fill="none" stroke="black" stroke-dasharray="1,5" points="8,-32.8 8,-222.8 1663,-222.8 1663,-32.8 8,-32.8"/>
</g>
<g id="clust2" class="cluster">
<title>cluster_ProcessesModule_declarations</title>
<polygon fill="none" stroke="black" points="360,-105.8 360,-157.8 1655,-157.8 1655,-105.8 360,-105.8"/>
</g>
<g id="clust7" class="cluster">
<title>cluster_ProcessesModule_ProcessesComponent_providers</title>
<polygon fill="none" stroke="black" points="757,-40.8 757,-92.8 921,-92.8 921,-40.8 757,-40.8"/>
</g>
<g id="clust10" class="cluster">
<title>cluster_ProcessesModule_imports</title>
<polygon fill="none" stroke="black" points="16,-105.8 16,-157.8 352,-157.8 352,-105.8 16,-105.8"/>
</g>
<!-- FilterOnCategoryIdPipe -->
<g id="node1" class="node">
<title>FilterOnCategoryIdPipe</title>
<polygon fill="#ffffb3" stroke="black" points="1646.8,-149.8 1495.2,-149.8 1495.2,-113.8 1646.8,-113.8 1646.8,-149.8"/>
<text text-anchor="middle" x="1571" y="-127.6" font-family="Times,serif" font-size="14.00">FilterOnCategoryIdPipe</text>
</g>
<!-- ProcessesModule -->
<g id="node8" class="node">
<title>ProcessesModule</title>
<polygon fill="#8dd3c7" stroke="black" points="895.97,-214.8 892.97,-218.8 871.97,-218.8 868.97,-214.8 782.03,-214.8 782.03,-178.8 895.97,-178.8 895.97,-214.8"/>
<text text-anchor="middle" x="839" y="-192.6" font-family="Times,serif" font-size="14.00">ProcessesModule</text>
</g>
<!-- FilterOnCategoryIdPipe&#45;&gt;ProcessesModule -->
<g id="edge1" class="edge">
<title>FilterOnCategoryIdPipe&#45;&gt;ProcessesModule</title>
<path fill="none" stroke="black" d="M1571,-149.81C1571,-172.29 1571,-207.8 1571,-207.8 1571,-207.8 906.13,-207.8 906.13,-207.8"/>
<polygon fill="black" stroke="black" points="906.13,-204.3 896.13,-207.8 906.13,-211.3 906.13,-204.3"/>
</g>
<!-- FilterOnProcessIdPipe -->
<g id="node2" class="node">
<title>FilterOnProcessIdPipe</title>
<polygon fill="#ffffb3" stroke="black" points="1477.25,-149.8 1334.75,-149.8 1334.75,-113.8 1477.25,-113.8 1477.25,-149.8"/>
<text text-anchor="middle" x="1406" y="-127.6" font-family="Times,serif" font-size="14.00">FilterOnProcessIdPipe</text>
</g>
<!-- FilterOnProcessIdPipe&#45;&gt;ProcessesModule -->
<g id="edge2" class="edge">
<title>FilterOnProcessIdPipe&#45;&gt;ProcessesModule</title>
<path fill="none" stroke="black" d="M1406,-149.93C1406,-170.37 1406,-200.8 1406,-200.8 1406,-200.8 906.22,-200.8 906.22,-200.8"/>
<polygon fill="black" stroke="black" points="906.22,-197.3 896.22,-200.8 906.22,-204.3 906.22,-197.3"/>
</g>
<!-- ProcessCategoriesComponent -->
<g id="node3" class="node">
<title>ProcessCategoriesComponent</title>
<polygon fill="#ffffb3" stroke="black" points="1316.96,-149.8 1133.04,-149.8 1133.04,-113.8 1316.96,-113.8 1316.96,-149.8"/>
<text text-anchor="middle" x="1225" y="-127.6" font-family="Times,serif" font-size="14.00">ProcessCategoriesComponent</text>
</g>
<!-- ProcessCategoriesComponent&#45;&gt;ProcessesModule -->
<g id="edge3" class="edge">
<title>ProcessCategoriesComponent&#45;&gt;ProcessesModule</title>
<path fill="none" stroke="black" d="M1225,-150.07C1225,-168.36 1225,-193.8 1225,-193.8 1225,-193.8 906.37,-193.8 906.37,-193.8"/>
<polygon fill="black" stroke="black" points="906.37,-190.3 896.37,-193.8 906.37,-197.3 906.37,-190.3"/>
</g>
<!-- ProcessesActivitiesComponent -->
<g id="node4" class="node">
<title>ProcessesActivitiesComponent</title>
<polygon fill="#ffffb3" stroke="black" points="1115.19,-149.8 924.81,-149.8 924.81,-113.8 1115.19,-113.8 1115.19,-149.8"/>
<text text-anchor="middle" x="1020" y="-127.6" font-family="Times,serif" font-size="14.00">ProcessesActivitiesComponent</text>
</g>
<!-- ProcessesActivitiesComponent&#45;&gt;ProcessesModule -->
<g id="edge4" class="edge">
<title>ProcessesActivitiesComponent&#45;&gt;ProcessesModule</title>
<path fill="none" stroke="black" d="M1020,-149.81C1020,-165.85 1020,-186.8 1020,-186.8 1020,-186.8 906.27,-186.8 906.27,-186.8"/>
<polygon fill="black" stroke="black" points="906.27,-183.3 896.27,-186.8 906.27,-190.3 906.27,-183.3"/>
</g>
<!-- ProcessesComponent -->
<g id="node5" class="node">
<title>ProcessesComponent</title>
<polygon fill="#ffffb3" stroke="black" points="906.75,-149.8 771.25,-149.8 771.25,-113.8 906.75,-113.8 906.75,-149.8"/>
<text text-anchor="middle" x="839" y="-127.6" font-family="Times,serif" font-size="14.00">ProcessesComponent</text>
</g>
<!-- ProcessesComponent&#45;&gt;ProcessesModule -->
<g id="edge5" class="edge">
<title>ProcessesComponent&#45;&gt;ProcessesModule</title>
<path fill="none" stroke="black" d="M839,-149.91C839,-149.91 839,-168.79 839,-168.79"/>
<polygon fill="black" stroke="black" points="835.5,-168.79 839,-178.79 842.5,-168.79 835.5,-168.79"/>
</g>
<!-- ProcessesOverviewComponent -->
<g id="node6" class="node">
<title>ProcessesOverviewComponent</title>
<polygon fill="#ffffb3" stroke="black" points="753.45,-149.8 562.55,-149.8 562.55,-113.8 753.45,-113.8 753.45,-149.8"/>
<text text-anchor="middle" x="658" y="-127.6" font-family="Times,serif" font-size="14.00">ProcessesOverviewComponent</text>
</g>
<!-- ProcessesOverviewComponent&#45;&gt;ProcessesModule -->
<g id="edge7" class="edge">
<title>ProcessesOverviewComponent&#45;&gt;ProcessesModule</title>
<path fill="none" stroke="black" d="M658,-149.81C658,-165.85 658,-186.8 658,-186.8 658,-186.8 771.73,-186.8 771.73,-186.8"/>
<polygon fill="black" stroke="black" points="771.73,-190.3 781.73,-186.8 771.73,-183.3 771.73,-190.3"/>
</g>
<!-- ProcessesResultsComponent -->
<g id="node7" class="node">
<title>ProcessesResultsComponent</title>
<polygon fill="#ffffb3" stroke="black" points="544.47,-149.8 367.53,-149.8 367.53,-113.8 544.47,-113.8 544.47,-149.8"/>
<text text-anchor="middle" x="456" y="-127.6" font-family="Times,serif" font-size="14.00">ProcessesResultsComponent</text>
</g>
<!-- ProcessesResultsComponent&#45;&gt;ProcessesModule -->
<g id="edge8" class="edge">
<title>ProcessesResultsComponent&#45;&gt;ProcessesModule</title>
<path fill="none" stroke="black" d="M456,-150.07C456,-168.36 456,-193.8 456,-193.8 456,-193.8 771.66,-193.8 771.66,-193.8"/>
<polygon fill="black" stroke="black" points="771.66,-197.3 781.66,-193.8 771.66,-190.3 771.66,-197.3"/>
</g>
<!-- MessageService -->
<g id="node9" class="node">
<title>MessageService</title>
<ellipse fill="#fdb462" stroke="black" cx="839" cy="-66.8" rx="73.55" ry="18"/>
<text text-anchor="middle" x="839" y="-62.6" font-family="Times,serif" font-size="14.00">MessageService</text>
</g>
<!-- MessageService&#45;&gt;ProcessesComponent -->
<g id="edge6" class="edge">
<title>MessageService&#45;&gt;ProcessesComponent</title>
<path fill="none" stroke="black" d="M839,-84.91C839,-84.91 839,-103.79 839,-103.79"/>
<polygon fill="black" stroke="black" points="835.5,-103.79 839,-113.79 842.5,-103.79 835.5,-103.79"/>
</g>
<!-- ProcessesRoutingModule -->
<g id="node10" class="node">
<title>ProcessesRoutingModule</title>
<polygon fill="#8dd3c7" stroke="black" points="343.59,-149.8 340.59,-153.8 319.59,-153.8 316.59,-149.8 184.41,-149.8 184.41,-113.8 343.59,-113.8 343.59,-149.8"/>
<text text-anchor="middle" x="264" y="-127.6" font-family="Times,serif" font-size="14.00">ProcessesRoutingModule</text>
</g>
<!-- ProcessesRoutingModule&#45;&gt;ProcessesModule -->
<g id="edge9" class="edge">
<title>ProcessesRoutingModule&#45;&gt;ProcessesModule</title>
<path fill="none" stroke="black" d="M264,-149.93C264,-170.37 264,-200.8 264,-200.8 264,-200.8 772.03,-200.8 772.03,-200.8"/>
<polygon fill="black" stroke="black" points="772.03,-204.3 782.03,-200.8 772.03,-197.3 772.03,-204.3"/>
</g>
<!-- SharedModuleModule -->
<g id="node11" class="node">
<title>SharedModuleModule</title>
<polygon fill="#8dd3c7" stroke="black" points="165.97,-149.8 162.97,-153.8 141.97,-153.8 138.97,-149.8 24.03,-149.8 24.03,-113.8 165.97,-113.8 165.97,-149.8"/>
<text text-anchor="middle" x="95" y="-127.6" font-family="Times,serif" font-size="14.00">SharedModuleModule</text>
</g>
<!-- SharedModuleModule&#45;&gt;ProcessesModule -->
<g id="edge10" class="edge">
<title>SharedModuleModule&#45;&gt;ProcessesModule</title>
<path fill="none" stroke="black" d="M95,-149.81C95,-172.29 95,-207.8 95,-207.8 95,-207.8 771.85,-207.8 771.85,-207.8"/>
<polygon fill="black" stroke="black" points="771.85,-211.3 781.85,-207.8 771.85,-204.3 771.85,-211.3"/>
</g>
</g>
</svg>
