<?xml version="1.0" encoding="UTF-8" standalone="no"?>
<!DOCTYPE svg PUBLIC "-//W3C//DTD SVG 1.1//EN"
 "http://www.w3.org/Graphics/SVG/1.1/DTD/svg11.dtd">
<!-- Generated by graphviz version 2.47.3 (20210619.1520)
 -->
<!-- Title: dependencies Pages: 1 -->
<svg width="1190pt" height="239pt"
 viewBox="0.00 0.00 1190.00 238.80" xmlns="http://www.w3.org/2000/svg" xmlns:xlink="http://www.w3.org/1999/xlink">
<g id="graph0" class="graph" transform="scale(1 1) rotate(0) translate(4 234.8)">
<title>dependencies</title>
<polygon fill="white" stroke="transparent" points="-4,4 -4,-234.8 1186,-234.8 1186,4 -4,4"/>
<text text-anchor="middle" x="591" y="-8.2" font-family="sans-serif" font-size="14.00">dependencies</text>
<g id="clust1" class="cluster">
<title>cluster_WearablesModule</title>
<polygon fill="none" stroke="black" stroke-dasharray="1,5" points="8,-32.8 8,-222.8 1174,-222.8 1174,-32.8 8,-32.8"/>
</g>
<g id="clust4" class="cluster">
<title>cluster_WearablesModule_WearablesComponent_providers</title>
<polygon fill="none" stroke="black" points="1002,-40.8 1002,-157.8 1166,-157.8 1166,-40.8 1002,-40.8"/>
</g>
<g id="clust7" class="cluster">
<title>cluster_WearablesModule_imports</title>
<polygon fill="none" stroke="black" points="654,-105.8 654,-157.8 994,-157.8 994,-105.8 654,-105.8"/>
</g>
<g id="clust2" class="cluster">
<title>cluster_WearablesModule_declarations</title>
<polygon fill="none" stroke="black" points="16,-105.8 16,-157.8 646,-157.8 646,-105.8 16,-105.8"/>
</g>
<!-- WearablesCategoriesComponent -->
<g id="node1" class="node">
<title>WearablesCategoriesComponent</title>
<polygon fill="#ffffb3" stroke="black" points="638.27,-149.8 437.73,-149.8 437.73,-113.8 638.27,-113.8 638.27,-149.8"/>
<text text-anchor="middle" x="538" y="-127.6" font-family="Times,serif" font-size="14.00">WearablesCategoriesComponent</text>
</g>
<!-- WearablesModule -->
<g id="node5" class="node">
<title>WearablesModule</title>
<polygon fill="#8dd3c7" stroke="black" points="700.12,-214.8 697.12,-218.8 676.12,-218.8 673.12,-214.8 581.88,-214.8 581.88,-178.8 700.12,-178.8 700.12,-214.8"/>
<text text-anchor="middle" x="641" y="-192.6" font-family="Times,serif" font-size="14.00">WearablesModule</text>
</g>
<!-- WearablesCategoriesComponent&#45;&gt;WearablesModule -->
<g id="edge1" class="edge">
<title>WearablesCategoriesComponent&#45;&gt;WearablesModule</title>
<path fill="none" stroke="black" d="M609.91,-149.91C609.91,-149.91 609.91,-168.79 609.91,-168.79"/>
<polygon fill="black" stroke="black" points="606.41,-168.79 609.91,-178.79 613.41,-168.79 606.41,-168.79"/>
</g>
<!-- WearablesComponent -->
<g id="node2" class="node">
<title>WearablesComponent</title>
<polygon fill="#ffffb3" stroke="black" points="1152.4,-149.8 1011.6,-149.8 1011.6,-113.8 1152.4,-113.8 1152.4,-149.8"/>
<text text-anchor="middle" x="1082" y="-127.6" font-family="Times,serif" font-size="14.00">WearablesComponent</text>
</g>
<!-- WearablesComponent&#45;&gt;WearablesModule -->
<g id="edge2" class="edge">
<title>WearablesComponent&#45;&gt;WearablesModule</title>
<path fill="none" stroke="black" d="M1082,-150.08C1082,-171.12 1082,-202.8 1082,-202.8 1082,-202.8 710.48,-202.8 710.48,-202.8"/>
<polygon fill="black" stroke="black" points="710.48,-199.3 700.48,-202.8 710.48,-206.3 710.48,-199.3"/>
</g>
<!-- WearablesOverviewComponent -->
<g id="node3" class="node">
<title>WearablesOverviewComponent</title>
<polygon fill="#ffffb3" stroke="black" points="419.6,-149.8 224.4,-149.8 224.4,-113.8 419.6,-113.8 419.6,-149.8"/>
<text text-anchor="middle" x="322" y="-127.6" font-family="Times,serif" font-size="14.00">WearablesOverviewComponent</text>
</g>
<!-- WearablesOverviewComponent&#45;&gt;WearablesModule -->
<g id="edge4" class="edge">
<title>WearablesOverviewComponent&#45;&gt;WearablesModule</title>
<path fill="none" stroke="black" d="M322,-149.82C322,-167.17 322,-190.8 322,-190.8 322,-190.8 571.75,-190.8 571.75,-190.8"/>
<polygon fill="black" stroke="black" points="571.75,-194.3 581.75,-190.8 571.75,-187.3 571.75,-194.3"/>
</g>
<!-- WearablesResultsComponent -->
<g id="node4" class="node">
<title>WearablesResultsComponent</title>
<polygon fill="#ffffb3" stroke="black" points="205.62,-149.8 24.38,-149.8 24.38,-113.8 205.62,-113.8 205.62,-149.8"/>
<text text-anchor="middle" x="115" y="-127.6" font-family="Times,serif" font-size="14.00">WearablesResultsComponent</text>
</g>
<!-- WearablesResultsComponent&#45;&gt;WearablesModule -->
<g id="edge5" class="edge">
<title>WearablesResultsComponent&#45;&gt;WearablesModule</title>
<path fill="none" stroke="black" d="M115,-150.08C115,-171.12 115,-202.8 115,-202.8 115,-202.8 571.68,-202.8 571.68,-202.8"/>
<polygon fill="black" stroke="black" points="571.68,-206.3 581.68,-202.8 571.68,-199.3 571.68,-206.3"/>
</g>
<!-- MessageService -->
<g id="node6" class="node">
<title>MessageService</title>
<ellipse fill="#fdb462" stroke="black" cx="1084" cy="-66.8" rx="73.55" ry="18"/>
<text text-anchor="middle" x="1084" y="-62.6" font-family="Times,serif" font-size="14.00">MessageService</text>
</g>
<!-- MessageService&#45;&gt;WearablesComponent -->
<g id="edge3" class="edge">
<title>MessageService&#45;&gt;WearablesComponent</title>
<path fill="none" stroke="black" d="M1082,-84.91C1082,-84.91 1082,-103.79 1082,-103.79"/>
<polygon fill="black" stroke="black" points="1078.5,-103.79 1082,-113.79 1085.5,-103.79 1078.5,-103.79"/>
</g>
<!-- SharedModuleModule -->
<g id="node7" class="node">
<title>SharedModuleModule</title>
<polygon fill="#8dd3c7" stroke="black" points="985.97,-149.8 982.97,-153.8 961.97,-153.8 958.97,-149.8 844.03,-149.8 844.03,-113.8 985.97,-113.8 985.97,-149.8"/>
<text text-anchor="middle" x="915" y="-127.6" font-family="Times,serif" font-size="14.00">SharedModuleModule</text>
</g>
<!-- SharedModuleModule&#45;&gt;WearablesModule -->
<g id="edge6" class="edge">
<title>SharedModuleModule&#45;&gt;WearablesModule</title>
<path fill="none" stroke="black" d="M915,-149.82C915,-167.17 915,-190.8 915,-190.8 915,-190.8 710.45,-190.8 710.45,-190.8"/>
<polygon fill="black" stroke="black" points="710.45,-187.3 700.45,-190.8 710.45,-194.3 710.45,-187.3"/>
</g>
<!-- WearablesRoutingModule -->
<g id="node8" class="node">
<title>WearablesRoutingModule</title>
<polygon fill="#8dd3c7" stroke="black" points="825.74,-149.8 822.74,-153.8 801.74,-153.8 798.74,-149.8 662.26,-149.8 662.26,-113.8 825.74,-113.8 825.74,-149.8"/>
<text text-anchor="middle" x="744" y="-127.6" font-family="Times,serif" font-size="14.00">WearablesRoutingModule</text>
</g>
<!-- WearablesRoutingModule&#45;&gt;WearablesModule -->
<g id="edge7" class="edge">
<title>WearablesRoutingModule&#45;&gt;WearablesModule</title>
<path fill="none" stroke="black" d="M681.22,-149.91C681.22,-149.91 681.22,-168.79 681.22,-168.79"/>
<polygon fill="black" stroke="black" points="677.72,-168.79 681.22,-178.79 684.72,-168.79 677.72,-168.79"/>
</g>
</g>
</svg>
