<?xml version="1.0" encoding="UTF-8" standalone="no"?>
<!DOCTYPE svg PUBLIC "-//W3C//DTD SVG 1.1//EN"
 "http://www.w3.org/Graphics/SVG/1.1/DTD/svg11.dtd">
<!-- Generated by graphviz version 2.47.3 (20210619.1520)
 -->
<!-- Title: dependencies Pages: 1 -->
<svg width="1859pt" height="247pt"
 viewBox="0.00 0.00 1859.00 246.80" xmlns="http://www.w3.org/2000/svg" xmlns:xlink="http://www.w3.org/1999/xlink">
<g id="graph0" class="graph" transform="scale(1 1) rotate(0) translate(4 242.8)">
<title>dependencies</title>
<polygon fill="white" stroke="transparent" points="-4,4 -4,-242.8 1855,-242.8 1855,4 -4,4"/>
<text text-anchor="middle" x="925.5" y="-8.2" font-family="sans-serif" font-size="14.00">dependencies</text>
<g id="clust1" class="cluster">
<title>cluster_ContentEditorModule</title>
<polygon fill="none" stroke="black" stroke-dasharray="1,5" points="8,-32.8 8,-230.8 1843,-230.8 1843,-32.8 8,-32.8"/>
</g>
<g id="clust2" class="cluster">
<title>cluster_ContentEditorModule_declarations</title>
<polygon fill="none" stroke="black" points="224,-40.8 224,-92.8 1835,-92.8 1835,-40.8 224,-40.8"/>
</g>
<g id="clust13" class="cluster">
<title>cluster_ContentEditorModule_imports</title>
<polygon fill="none" stroke="black" points="16,-40.8 16,-92.8 216,-92.8 216,-40.8 16,-40.8"/>
</g>
<g id="clust14" class="cluster">
<title>cluster_ContentEditorModule_exports</title>
<polygon fill="none" stroke="black" points="867,-170.8 867,-222.8 1011,-222.8 1011,-170.8 867,-170.8"/>
</g>
<!-- ActivityComponent -->
<g id="node1" class="node">
<title>ActivityComponent</title>
<polygon fill="#ffffb3" stroke="black" points="1826.72,-84.8 1699.28,-84.8 1699.28,-48.8 1826.72,-48.8 1826.72,-84.8"/>
<text text-anchor="middle" x="1763" y="-62.6" font-family="Times,serif" font-size="14.00">ActivityComponent</text>
</g>
<!-- ContentEditorModule -->
<g id="node11" class="node">
<title>ContentEditorModule</title>
<polygon fill="#8dd3c7" stroke="black" points="1008.38,-149.8 1005.38,-153.8 984.38,-153.8 981.38,-149.8 869.62,-149.8 869.62,-113.8 1008.38,-113.8 1008.38,-149.8"/>
<text text-anchor="middle" x="939" y="-127.6" font-family="Times,serif" font-size="14.00">ContentEditorModule</text>
</g>
<!-- ActivityComponent&#45;&gt;ContentEditorModule -->
<g id="edge1" class="edge">
<title>ActivityComponent&#45;&gt;ContentEditorModule</title>
<path fill="none" stroke="black" d="M1763,-85.05C1763,-107.82 1763,-143.8 1763,-143.8 1763,-143.8 1018.54,-143.8 1018.54,-143.8"/>
<polygon fill="black" stroke="black" points="1018.54,-140.3 1008.54,-143.8 1018.54,-147.3 1018.54,-140.3"/>
</g>
<!-- ContentEditorLoginComponent -->
<g id="node2" class="node">
<title>ContentEditorLoginComponent</title>
<polygon fill="#ffffb3" stroke="black" points="1681.1,-84.8 1486.9,-84.8 1486.9,-48.8 1681.1,-48.8 1681.1,-84.8"/>
<text text-anchor="middle" x="1584" y="-62.6" font-family="Times,serif" font-size="14.00">ContentEditorLoginComponent</text>
</g>
<!-- ContentEditorLoginComponent&#45;&gt;ContentEditorModule -->
<g id="edge2" class="edge">
<title>ContentEditorLoginComponent&#45;&gt;ContentEditorModule</title>
<path fill="none" stroke="black" d="M1584,-85.08C1584,-106.12 1584,-137.8 1584,-137.8 1584,-137.8 1018.64,-137.8 1018.64,-137.8"/>
<polygon fill="black" stroke="black" points="1018.64,-134.3 1008.64,-137.8 1018.64,-141.3 1018.64,-134.3"/>
</g>
<!-- DataTypeComponent -->
<g id="node3" class="node">
<title>DataTypeComponent</title>
<polygon fill="#ffffb3" stroke="black" points="1469.03,-84.8 1332.97,-84.8 1332.97,-48.8 1469.03,-48.8 1469.03,-84.8"/>
<text text-anchor="middle" x="1401" y="-62.6" font-family="Times,serif" font-size="14.00">DataTypeComponent</text>
</g>
<!-- DataTypeComponent&#45;&gt;ContentEditorModule -->
<g id="edge3" class="edge">
<title>DataTypeComponent&#45;&gt;ContentEditorModule</title>
<path fill="none" stroke="black" d="M1401,-84.91C1401,-104.14 1401,-131.8 1401,-131.8 1401,-131.8 1018.42,-131.8 1018.42,-131.8"/>
<polygon fill="black" stroke="black" points="1018.42,-128.3 1008.42,-131.8 1018.42,-135.3 1018.42,-128.3"/>
</g>
<!-- EditorHomeComponent -->
<g id="node4" class="node">
<title>EditorHomeComponent</title>
<polygon fill="#ffffb3" stroke="black" points="1314.04,-84.8 1163.96,-84.8 1163.96,-48.8 1314.04,-48.8 1314.04,-84.8"/>
<text text-anchor="middle" x="1239" y="-62.6" font-family="Times,serif" font-size="14.00">EditorHomeComponent</text>
</g>
<!-- EditorHomeComponent&#45;&gt;ContentEditorModule -->
<g id="edge4" class="edge">
<title>EditorHomeComponent&#45;&gt;ContentEditorModule</title>
<path fill="none" stroke="black" d="M1239,-84.82C1239,-102.17 1239,-125.8 1239,-125.8 1239,-125.8 1018.58,-125.8 1018.58,-125.8"/>
<polygon fill="black" stroke="black" points="1018.58,-122.3 1008.58,-125.8 1018.58,-129.3 1018.58,-122.3"/>
</g>
<!-- FeatureComponent -->
<g id="node5" class="node">
<title>FeatureComponent</title>
<polygon fill="#ffffb3" stroke="black" points="1145.81,-84.8 1022.19,-84.8 1022.19,-48.8 1145.81,-48.8 1145.81,-84.8"/>
<text text-anchor="middle" x="1084" y="-62.6" font-family="Times,serif" font-size="14.00">FeatureComponent</text>
</g>
<!-- FeatureComponent&#45;&gt;ContentEditorModule -->
<g id="edge5" class="edge">
<title>FeatureComponent&#45;&gt;ContentEditorModule</title>
<path fill="none" stroke="black" d="M1084,-85.04C1084,-100.37 1084,-119.8 1084,-119.8 1084,-119.8 1018.53,-119.8 1018.53,-119.8"/>
<polygon fill="black" stroke="black" points="1018.53,-116.3 1008.53,-119.8 1018.53,-123.3 1018.53,-116.3"/>
</g>
<!-- InterfaceComponent -->
<g id="node6" class="node">
<title>InterfaceComponent</title>
<polygon fill="#ffffb3" stroke="black" points="1004.56,-84.8 873.44,-84.8 873.44,-48.8 1004.56,-48.8 1004.56,-84.8"/>
<text text-anchor="middle" x="939" y="-62.6" font-family="Times,serif" font-size="14.00">InterfaceComponent</text>
</g>
<!-- InterfaceComponent&#45;&gt;ContentEditorModule -->
<g id="edge6" class="edge">
<title>InterfaceComponent&#45;&gt;ContentEditorModule</title>
<path fill="none" stroke="black" d="M939,-84.91C939,-84.91 939,-103.79 939,-103.79"/>
<polygon fill="black" stroke="black" points="935.5,-103.79 939,-113.79 942.5,-103.79 935.5,-103.79"/>
</g>
<!-- ProcessComponent -->
<g id="node7" class="node">
<title>ProcessComponent</title>
<polygon fill="#ffffb3" stroke="black" points="855.09,-84.8 730.91,-84.8 730.91,-48.8 855.09,-48.8 855.09,-84.8"/>
<text text-anchor="middle" x="793" y="-62.6" font-family="Times,serif" font-size="14.00">ProcessComponent</text>
</g>
<!-- ProcessComponent&#45;&gt;ContentEditorModule -->
<g id="edge7" class="edge">
<title>ProcessComponent&#45;&gt;ContentEditorModule</title>
<path fill="none" stroke="black" d="M793,-85.04C793,-100.37 793,-119.8 793,-119.8 793,-119.8 859.42,-119.8 859.42,-119.8"/>
<polygon fill="black" stroke="black" points="859.42,-123.3 869.42,-119.8 859.42,-116.3 859.42,-123.3"/>
</g>
<!-- SidebarComponent -->
<g id="node8" class="node">
<title>SidebarComponent</title>
<polygon fill="#ffffb3" stroke="black" points="713.1,-84.8 588.9,-84.8 588.9,-48.8 713.1,-48.8 713.1,-84.8"/>
<text text-anchor="middle" x="651" y="-62.6" font-family="Times,serif" font-size="14.00">SidebarComponent</text>
</g>
<!-- SidebarComponent&#45;&gt;ContentEditorModule -->
<g id="edge8" class="edge">
<title>SidebarComponent&#45;&gt;ContentEditorModule</title>
<path fill="none" stroke="black" d="M651,-84.82C651,-102.17 651,-125.8 651,-125.8 651,-125.8 859.28,-125.8 859.28,-125.8"/>
<polygon fill="black" stroke="black" points="859.28,-129.3 869.28,-125.8 859.28,-122.3 859.28,-129.3"/>
</g>
<!-- WearableCategoryComponent -->
<g id="node9" class="node">
<title>WearableCategoryComponent</title>
<polygon fill="#ffffb3" stroke="black" points="571.27,-84.8 384.73,-84.8 384.73,-48.8 571.27,-48.8 571.27,-84.8"/>
<text text-anchor="middle" x="478" y="-62.6" font-family="Times,serif" font-size="14.00">WearableCategoryComponent</text>
</g>
<!-- WearableCategoryComponent&#45;&gt;ContentEditorModule -->
<g id="edge9" class="edge">
<title>WearableCategoryComponent&#45;&gt;ContentEditorModule</title>
<path fill="none" stroke="black" d="M478,-84.91C478,-104.14 478,-131.8 478,-131.8 478,-131.8 859.48,-131.8 859.48,-131.8"/>
<polygon fill="black" stroke="black" points="859.48,-135.3 869.48,-131.8 859.48,-128.3 859.48,-135.3"/>
</g>
<!-- WearableComponent -->
<g id="node10" class="node">
<title>WearableComponent</title>
<polygon fill="#ffffb3" stroke="black" points="366.46,-84.8 231.54,-84.8 231.54,-48.8 366.46,-48.8 366.46,-84.8"/>
<text text-anchor="middle" x="299" y="-62.6" font-family="Times,serif" font-size="14.00">WearableComponent</text>
</g>
<!-- WearableComponent&#45;&gt;ContentEditorModule -->
<g id="edge10" class="edge">
<title>WearableComponent&#45;&gt;ContentEditorModule</title>
<path fill="none" stroke="black" d="M299,-85.08C299,-106.12 299,-137.8 299,-137.8 299,-137.8 859.6,-137.8 859.6,-137.8"/>
<polygon fill="black" stroke="black" points="859.6,-141.3 869.6,-137.8 859.6,-134.3 859.6,-141.3"/>
</g>
<!-- SidebarComponent  -->
<g id="node13" class="node">
<title>SidebarComponent </title>
<polygon fill="#fb8072" stroke="black" points="1002.6,-214.8 875.4,-214.8 875.4,-178.8 1002.6,-178.8 1002.6,-214.8"/>
<text text-anchor="middle" x="939" y="-192.6" font-family="Times,serif" font-size="14.00">SidebarComponent </text>
</g>
<!-- ContentEditorModule&#45;&gt;SidebarComponent  -->
<g id="edge12" class="edge">
<title>ContentEditorModule&#45;&gt;SidebarComponent </title>
<path fill="none" stroke="black" stroke-dasharray="5,2" d="M939,-149.91C939,-149.91 939,-168.79 939,-168.79"/>
<polygon fill="black" stroke="black" points="935.5,-168.79 939,-178.79 942.5,-168.79 935.5,-168.79"/>
</g>
<!-- ContentEditorRoutingModule -->
<g id="node12" class="node">
<title>ContentEditorRoutingModule</title>
<polygon fill="#8dd3c7" stroke="black" points="207.99,-84.8 204.99,-88.8 183.99,-88.8 180.99,-84.8 24.01,-84.8 24.01,-48.8 207.99,-48.8 207.99,-84.8"/>
<text text-anchor="middle" x="116" y="-62.6" font-family="Times,serif" font-size="14.00">ContentEditorRoutingModule</text>
</g>
<!-- ContentEditorRoutingModule&#45;&gt;ContentEditorModule -->
<g id="edge11" class="edge">
<title>ContentEditorRoutingModule&#45;&gt;ContentEditorModule</title>
<path fill="none" stroke="black" d="M116,-85.05C116,-107.82 116,-143.8 116,-143.8 116,-143.8 859.54,-143.8 859.54,-143.8"/>
<polygon fill="black" stroke="black" points="859.54,-147.3 869.54,-143.8 859.54,-140.3 859.54,-147.3"/>
</g>
</g>
</svg>
