<?xml version="1.0" encoding="UTF-8" standalone="no"?>
<!DOCTYPE svg PUBLIC "-//W3C//DTD SVG 1.1//EN"
 "http://www.w3.org/Graphics/SVG/1.1/DTD/svg11.dtd">
<!-- Generated by graphviz version 2.47.3 (20210619.1520)
 -->
<!-- Title: dependencies Pages: 1 -->
<svg width="182pt" height="247pt"
 viewBox="0.00 0.00 182.00 246.80" xmlns="http://www.w3.org/2000/svg" xmlns:xlink="http://www.w3.org/1999/xlink">
<g id="graph0" class="graph" transform="scale(1 1) rotate(0) translate(4 242.8)">
<title>dependencies</title>
<polygon fill="white" stroke="transparent" points="-4,4 -4,-242.8 178,-242.8 178,4 -4,4"/>
<text text-anchor="middle" x="87" y="-8.2" font-family="sans-serif" font-size="14.00">dependencies</text>
<g id="clust1" class="cluster">
<title>cluster_SharedModuleModule</title>
<polygon fill="none" stroke="black" stroke-dasharray="1,5" points="8,-32.8 8,-230.8 166,-230.8 166,-32.8 8,-32.8"/>
</g>
<g id="clust2" class="cluster">
<title>cluster_SharedModuleModule_declarations</title>
<polygon fill="none" stroke="black" points="19,-40.8 19,-92.8 155,-92.8 155,-40.8 19,-40.8"/>
</g>
<g id="clust5" class="cluster">
<title>cluster_SharedModuleModule_exports</title>
<polygon fill="none" stroke="black" points="17,-170.8 17,-222.8 157,-222.8 157,-170.8 17,-170.8"/>
</g>
<!-- LoaderComponent -->
<g id="node1" class="node">
<title>LoaderComponent</title>
<polygon fill="#ffffb3" stroke="black" points="147.47,-84.8 26.53,-84.8 26.53,-48.8 147.47,-48.8 147.47,-84.8"/>
<text text-anchor="middle" x="87" y="-62.6" font-family="Times,serif" font-size="14.00">LoaderComponent</text>
</g>
<!-- SharedModuleModule -->
<g id="node2" class="node">
<title>SharedModuleModule</title>
<polygon fill="#8dd3c7" stroke="black" points="157.97,-149.8 154.97,-153.8 133.97,-153.8 130.97,-149.8 16.03,-149.8 16.03,-113.8 157.97,-113.8 157.97,-149.8"/>
<text text-anchor="middle" x="87" y="-127.6" font-family="Times,serif" font-size="14.00">SharedModuleModule</text>
</g>
<!-- LoaderComponent&#45;&gt;SharedModuleModule -->
<g id="edge1" class="edge">
<title>LoaderComponent&#45;&gt;SharedModuleModule</title>
<path fill="none" stroke="black" d="M87,-84.91C87,-84.91 87,-103.79 87,-103.79"/>
<polygon fill="black" stroke="black" points="83.5,-103.79 87,-113.79 90.5,-103.79 83.5,-103.79"/>
</g>
<!-- LoaderComponent  -->
<g id="node3" class="node">
<title>LoaderComponent </title>
<polygon fill="#fb8072" stroke="black" points="149.48,-214.8 24.52,-214.8 24.52,-178.8 149.48,-178.8 149.48,-214.8"/>
<text text-anchor="middle" x="87" y="-192.6" font-family="Times,serif" font-size="14.00">LoaderComponent </text>
</g>
<!-- SharedModuleModule&#45;&gt;LoaderComponent  -->
<g id="edge2" class="edge">
<title>SharedModuleModule&#45;&gt;LoaderComponent </title>
<path fill="none" stroke="black" stroke-dasharray="5,2" d="M87,-149.91C87,-149.91 87,-168.79 87,-168.79"/>
<polygon fill="black" stroke="black" points="83.5,-168.79 87,-178.79 90.5,-168.79 83.5,-168.79"/>
</g>
</g>
</svg>
