<?xml version="1.0" encoding="UTF-8" standalone="no"?>
<!DOCTYPE svg PUBLIC "-//W3C//DTD SVG 1.1//EN"
 "http://www.w3.org/Graphics/SVG/1.1/DTD/svg11.dtd">
<!-- Generated by graphviz version 2.47.3 (20210619.1520)
 -->
<!-- Title: dependencies Pages: 1 -->
<svg width="687pt" height="247pt"
 viewBox="0.00 0.00 687.00 246.80" xmlns="http://www.w3.org/2000/svg" xmlns:xlink="http://www.w3.org/1999/xlink">
<g id="graph0" class="graph" transform="scale(1 1) rotate(0) translate(4 242.8)">
<title>dependencies</title>
<polygon fill="white" stroke="transparent" points="-4,4 -4,-242.8 683,-242.8 683,4 -4,4"/>
<text text-anchor="middle" x="339.5" y="-8.2" font-family="sans-serif" font-size="14.00">dependencies</text>
<g id="clust1" class="cluster">
<title>cluster_AppModule</title>
<polygon fill="none" stroke="black" stroke-dasharray="1,5" points="8,-32.8 8,-230.8 671,-230.8 671,-32.8 8,-32.8"/>
</g>
<g id="clust2" class="cluster">
<title>cluster_AppModule_declarations</title>
<polygon fill="none" stroke="black" points="408,-40.8 408,-92.8 663,-92.8 663,-40.8 408,-40.8"/>
</g>
<g id="clust7" class="cluster">
<title>cluster_AppModule_bootstrap</title>
<polygon fill="none" stroke="black" points="317,-170.8 317,-222.8 441,-222.8 441,-170.8 317,-170.8"/>
</g>
<g id="clust8" class="cluster">
<title>cluster_AppModule_providers</title>
<polygon fill="none" stroke="black" points="168,-40.8 168,-92.8 400,-92.8 400,-40.8 168,-40.8"/>
</g>
<g id="clust5" class="cluster">
<title>cluster_AppModule_imports</title>
<polygon fill="none" stroke="black" points="16,-40.8 16,-92.8 160,-92.8 160,-40.8 16,-40.8"/>
</g>
<!-- AppComponent -->
<g id="node1" class="node">
<title>AppComponent</title>
<polygon fill="#ffffb3" stroke="black" points="654.94,-84.8 549.06,-84.8 549.06,-48.8 654.94,-48.8 654.94,-84.8"/>
<text text-anchor="middle" x="602" y="-62.6" font-family="Times,serif" font-size="14.00">AppComponent</text>
</g>
<!-- AppModule -->
<g id="node3" class="node">
<title>AppModule</title>
<polygon fill="#8dd3c7" stroke="black" points="420.66,-149.8 417.66,-153.8 396.66,-153.8 393.66,-149.8 337.34,-149.8 337.34,-113.8 420.66,-113.8 420.66,-149.8"/>
<text text-anchor="middle" x="379" y="-127.6" font-family="Times,serif" font-size="14.00">AppModule</text>
</g>
<!-- AppComponent&#45;&gt;AppModule -->
<g id="edge1" class="edge">
<title>AppComponent&#45;&gt;AppModule</title>
<path fill="none" stroke="black" d="M602,-85.08C602,-106.12 602,-137.8 602,-137.8 602,-137.8 430.68,-137.8 430.68,-137.8"/>
<polygon fill="black" stroke="black" points="430.68,-134.3 420.68,-137.8 430.68,-141.3 430.68,-134.3"/>
</g>
<!-- HomeComponent -->
<g id="node2" class="node">
<title>HomeComponent</title>
<polygon fill="#ffffb3" stroke="black" points="531.55,-84.8 416.45,-84.8 416.45,-48.8 531.55,-48.8 531.55,-84.8"/>
<text text-anchor="middle" x="474" y="-62.6" font-family="Times,serif" font-size="14.00">HomeComponent</text>
</g>
<!-- HomeComponent&#45;&gt;AppModule -->
<g id="edge2" class="edge">
<title>HomeComponent&#45;&gt;AppModule</title>
<path fill="none" stroke="black" d="M427.15,-84.82C427.15,-102.17 427.15,-125.8 427.15,-125.8 427.15,-125.8 426.52,-125.8 426.52,-125.8"/>
<polygon fill="black" stroke="black" points="430.85,-122.3 420.85,-125.8 430.85,-129.3 430.85,-122.3"/>
</g>
<!-- AppComponent  -->
<g id="node5" class="node">
<title>AppComponent </title>
<polygon fill="#80b1d3" stroke="black" points="433.44,-214.8 324.56,-214.8 324.56,-178.8 433.44,-178.8 433.44,-214.8"/>
<text text-anchor="middle" x="379" y="-192.6" font-family="Times,serif" font-size="14.00">AppComponent </text>
</g>
<!-- AppModule&#45;&gt;AppComponent  -->
<g id="edge4" class="edge">
<title>AppModule&#45;&gt;AppComponent </title>
<path fill="none" stroke="black" stroke-dasharray="1,5" d="M379,-149.91C379,-149.91 379,-168.79 379,-168.79"/>
<polygon fill="black" stroke="black" points="375.5,-168.79 379,-178.79 382.5,-168.79 375.5,-168.79"/>
</g>
<!-- AppRoutingModule -->
<g id="node4" class="node">
<title>AppRoutingModule</title>
<polygon fill="#8dd3c7" stroke="black" points="152.27,-84.8 149.27,-88.8 128.27,-88.8 125.27,-84.8 23.73,-84.8 23.73,-48.8 152.27,-48.8 152.27,-84.8"/>
<text text-anchor="middle" x="88" y="-62.6" font-family="Times,serif" font-size="14.00">AppRoutingModule</text>
</g>
<!-- AppRoutingModule&#45;&gt;AppModule -->
<g id="edge3" class="edge">
<title>AppRoutingModule&#45;&gt;AppModule</title>
<path fill="none" stroke="black" d="M88,-84.91C88,-104.14 88,-131.8 88,-131.8 88,-131.8 327.31,-131.8 327.31,-131.8"/>
<polygon fill="black" stroke="black" points="327.31,-135.3 337.31,-131.8 327.31,-128.3 327.31,-135.3"/>
</g>
<!-- ContentEditorInterceptor -->
<g id="node6" class="node">
<title>ContentEditorInterceptor</title>
<ellipse fill="#fdb462" stroke="black" cx="284" cy="-66.8" rx="108.22" ry="18"/>
<text text-anchor="middle" x="284" y="-62.6" font-family="Times,serif" font-size="14.00">ContentEditorInterceptor</text>
</g>
<!-- ContentEditorInterceptor&#45;&gt;AppModule -->
<g id="edge5" class="edge">
<title>ContentEditorInterceptor&#45;&gt;AppModule</title>
<path fill="none" stroke="black" d="M364.64,-79.03C364.64,-79.03 364.64,-103.48 364.64,-103.48"/>
<polygon fill="black" stroke="black" points="361.14,-103.48 364.64,-113.48 368.14,-103.48 361.14,-103.48"/>
</g>
</g>
</svg>
